<?xml version="1.0" encoding="utf-8"?>
<!-- Generator: Adobe Illustrator 18.0.0, SVG Export Plug-In . SVG Version: 6.00 Build 0)  -->
<!DOCTYPE svg PUBLIC "-//W3C//DTD SVG 1.1//EN" "http://www.w3.org/Graphics/SVG/1.1/DTD/svg11.dtd">
<svg version="1.1" id="Layer_1" xmlns="http://www.w3.org/2000/svg" xmlns:xlink="http://www.w3.org/1999/xlink" x="0px" y="0px"
	 viewBox="73 25.7 465.7 588.5" enable-background="new 73 25.7 465.7 588.5" xml:space="preserve">
<g>
	<path d="M310.3,135.3c1.8-5.5,12.9-26.3,12.9-26.3s-49.6,10.4-55.1-20.2c-5.5-30.6,23.3-63,23.3-63S243,46.5,241.1,86.3
		C239.9,135.9,310.3,135.3,310.3,135.3z"/>
	<path d="M290.1,146.9c-5.5,0-31.2,12.9-29.4,19.6c1.8,6.1,26.3,6.7,34.3,11.6s18.4-14.1,18.4-14.1s-1.8-14.1-3.1-20.2
		C310.3,143.9,295.6,146.9,290.1,146.9z"/>
	<ellipse transform="matrix(-0.6377 -0.7703 0.7703 -0.6377 415.8372 620.2646)" cx="353.8" cy="212.3" rx="3.1" ry="5.5"/>
	<ellipse transform="matrix(-0.4585 -0.8887 0.8887 -0.4585 297.8257 604.064)" cx="332.9" cy="211.3" rx="5.5" ry="2.4"/>
	<path d="M396,107.7c0,0,3.1,19.6,11,25.7c0,0,61.8,3.7,77.7-12.2c23.9-23.3,22-36.7-3.1-72.8c-3.7-4.9-14.7-14.7-19-18.4
		c0,0-5.5-4.3-5.5-3.7c28.2,47.1,16.5,66.7,16.5,66.7C460.2,111.4,440.6,101,396,107.7z"/>
	<path d="M324.4,195.3c-1.2,6.7-8.6,22.6-5.5,28.2c2.4,5.5,11,19,48.3,9.2c4.9-1.8,10.4-6.1,14.1-15.3c0,0,11.6-20.8,16.5-30
		c0.6-1.8,0.6-3.7,0.6-4.3c0.6-2.4,3.1-10.4,3.1-10.4s6.7-1.8,10.4,0c3.7,1.8,19,10.4,32.4-4.9c4.3-4.3,7.3-7.3,9.8-9.2
		c3.1-2.4,2.4-7.3-1.2-8.6c-6.1-3.1-14.7-6.7-24.5-8.6c-10.4,2.4-17.7,3.7-20.2,3.7c-0.6,0-1.2,0-1.8,0c-2.4,0-4.9-0.6-6.7-2.4
		c-9.2-7.3-13.5-24.5-14.7-31.2c-4.3-0.6-42.8-3.7-50.8-0.6c0,0-15.9,25.1-15.9,36.7C318.2,163.4,325.6,188.5,324.4,195.3z
		 M385.6,147.5c0,0-4.3,12.9-14.1,4.3C371.5,151.8,375.8,139.6,385.6,147.5z M343.3,205.7c9.2,0,14.7-4.3,17.7,0.6
		c2.4,5.5-1.8,9.2-3.1,11c0,0.6-0.6,0.6-0.6,1.2c-0.6,1.8-2.4,3.1-4.9,3.7c-3.7,0.6-9.2,1.2-18.4-0.6c-2.4-0.6-4.3-1.8-4.9-4.3
		c-1.2-3.1-2.4-8.6-1.8-11.6C328.6,200.8,334.8,205.7,343.3,205.7z M332.9,151.8c-6.7,8.6-9.8-4.3-9.8-4.3
		C329.9,139.6,332.9,151.8,332.9,151.8z"/>
	<path d="M124.8,160.4l17.7-9.2l-8.6-17.1c-1.8-3.1-6.1-4.9-9.2-3.1l-5.5,3.1c-3.1,1.8-4.9,6.1-3.1,9.2L124.8,160.4z"/>
	<path d="M135.3,227.1c-0.6-3.1,0-6.1,0.6-9.2c1.8-4.9,5.5-9.2,10.4-11.6l20.2-10.4c8-3.7,17.1-2.4,23.3,3.7
		c11,11,11.6,26.3,10.4,33.7c0,1.2,1.8,1.8,2.4,1.2c3.7-4.3,9.2-11.6,12.9-22.6c4.9-14.7,6.1-35.5-6.1-61.2l0,0
		c0-0.6-0.6-1.2-0.6-1.2c0-0.6-0.6-1.2-0.6-1.2l0,0c-23.9-44.1-59.4-45.3-71.6-44.1c-0.6,0-1.2,0.6-1.2,1.2c0,0.6,0,1.2,0.6,1.8
		c6.1,3.7,18.4,12.9,20.8,28.2c0.6,3.1,0,6.1-0.6,9.2c-1.8,4.9-5.5,9.2-10.4,11.6l-20.2,10.4c-8,3.7-17.1,2.4-23.3-3.7
		c-11-11-11.6-26.3-10.4-33.7c0-1.2-1.8-1.8-2.4-1.2c-3.7,4.3-9.2,11.6-12.9,22.6c-4.9,14.7-6.1,35.5,6.1,61.2l0,0
		c0,0.6,0.6,1.2,0.6,1.2c0,0.6,0.6,1.2,0.6,1.2l0,0c23.9,44.1,59.4,45.3,71.6,44.1c0.6,0,1.2-0.6,1.2-1.2s0-1.2-0.6-1.8
		C149.9,251.6,137.7,242.4,135.3,227.1z M143.2,175.1c3.1-1.8,6.7-0.6,8.6,2.4s0.6,6.7-2.4,8.6c-3.1,1.8-6.7,0.6-8.6-2.4
		C138.9,180,140.1,176.3,143.2,175.1z"/>
	<path d="M242.4,376.4l5.5-3.1c3.1-1.8,4.9-6.1,3.1-9.2l-3.1-6.7l0,0l-17.7,9.2l3.1,6.7C235,377,238.7,378.3,242.4,376.4z"/>
	<path d="M296.8,509.2c27.5-12.9,30-20.8,30-20.8c-4.3-19.6-4.9-47.1-8.6-67.9c-4.3-20.2-9.2-31.8-9.2-31.8s-38.6,15.9-60,58.1
		c-4.9,9.2-4.9,18.4-6.7,26.3s-12.2,14.1-8,23.3c7.3,17.1,26.3,21.4,42.8,31.8c16.5,10.4,18.4,19.6,19.6,22.6s-33.7,42.8-32.4,49
		c1.2,6.1,30.6,4.3,44.1,1.8c13.5-1.8,8-26.3,8-26.3l9.2-4.3v-10.4c0-13.5,21.4-42.8,20.2-51.4c-1.2-8.6-9.2-16.5-9.2-16.5
		C317,511.1,296.8,509.2,296.8,509.2z"/>
	<path d="M508.6,538c-2.4-8,4.9-30-15.3-60.6c0,0-3.7-11-3.1-20.2c0,0,6.1,20.2,11,23.3s6.7,8,6.7,8s4.9-39.2-4.9-55.1l-1.2-0.6
		c-5.5,5.5-11,8-13.5,9.2c-6.1,1.8-18.4-6.7-18.4-6.7h-1.8c-3.7-0.6-5.5-6.7-5.5-6.7c-3.7,0-9.2-3.1-11-8
		c-1.8-4.9,11-15.3,12.2-15.9c1.2-0.6-1.8-5.5-3.1-6.7c-1.2-1.2-4.9,9.8-8,7.3c-1.8-1.2-4.9-3.7-6.7-7.3c-1.2,0.6-8.6,4.9-11.6,6.7
		c-3.7,1.8-19.6,8.6-19.6,8.6v1.2c0.6,1.2,7.3,33.7,9.2,42.8c1.8,9.2,2.4,15.9-3.1,22.6c-5.5,6.7-14.1,3.7-14.1,3.7l2.4,3.7
		c0,0,14.7,18.4,21.4,23.3s42.2,26.9,51.4,34.3c9.2,8,3.7,31.2,3.7,31.2s-14.1,26.9-14.1,33.7c0,0,9.8,8,33,3.1
		c23.3-4.9,17.7-11.6,17.7-27.5C521.4,568,510.4,545.9,508.6,538z"/>
	<path d="M411.9,476.8L411.9,476.8c6.1-1.8,6.1-11.6,6.1-12.9l-9.8-48.3c-1.8-9.2-2.4-17.7-3.1-23.3c0-0.6,0-1.2-0.6-1.2
		c-0.6-0.6-3.1,0-4.9,0c-1.2,0-2.4,0.6-3.7,0.6s-1.8,0.6-2.4,0.6h-0.6c-3.7,0.6-3.7,1.8-3.1,4.3c0,0.6,0,0.6,0,1.2
		c0.6,11.6,2.4,19,2.4,19l9.8,49C403.9,470.1,407.6,478,411.9,476.8z M394.7,402.1c-0.6-1.8,0.6-3.7,2.4-4.3
		c1.8-0.6,3.7,0.6,4.3,2.4c0.6,1.8-0.6,3.7-2.4,4.3C397.2,405.2,395.4,404,394.7,402.1z M399,426.6c-0.6-1.8,0.6-3.7,2.4-4.3
		s3.7,0.6,4.3,2.4c0.6,1.8-0.6,3.7-2.4,4.3C401.5,429.7,399.6,428.4,399,426.6z M403.9,449.9c-0.6-1.8,0.6-3.7,2.4-4.3
		c1.8-0.6,3.7,0.6,4.3,2.4c0.6,1.8-0.6,3.7-2.4,4.3C405.8,452.9,404.5,451.7,403.9,449.9z"/>
	<path d="M384.3,398.4c0-0.6,0-1.2,0-1.2c-0.6,0-1.8,0-3.1,0h-1.2c-1.8,0-5.5,0.6-6.7,0.6h-0.6c-3.7,0.6-3.1,1.2-3.1,3.7
		c0,0.6,0,0.6,0,1.2c0,11.6,1.2,19,1.2,19l8.6,71c1.2,4.3,4.3,12.2,8.6,11.6c0,0,0,0,0.6,0c6.1-1.2,6.7-11,6.7-12.2l-9.8-70.4
		C384.9,412.5,384.3,404,384.3,398.4z M373.3,405.8c0-1.8,1.2-3.7,3.1-3.7c1.8,0,3.7,1.2,3.7,3.1c0,1.8-1.2,3.7-3.1,3.7
		S373.3,407.6,373.3,405.8z M375.2,430.9c0-1.8,1.2-3.7,3.1-3.7c1.8,0,3.7,1.2,3.7,3.1c0,1.8-1.2,3.7-3.1,3.7
		S375.8,432.7,375.2,430.9z M378.2,456c0-1.8,1.2-3.7,3.1-3.7c1.8,0,3.7,1.2,3.7,3.1c0,1.8-1.2,3.7-3.1,3.7
		C380.1,459.6,378.2,457.8,378.2,456z M388,481.1c0,1.8-1.2,3.7-3.1,3.7s-3.7-1.2-3.7-3.1s1.2-3.7,3.1-3.7
		C386.2,477.4,388,478.6,388,481.1z"/>
	<path d="M362.3,400.3c0-0.6,0-1.2,0-1.2c-0.6-0.6-3.1-0.6-4.9,0c-0.6,0-1.8,0-3.1,0s-2.4,0-3.7,0h-0.6c-3.7,0.6-3.7,1.8-3.7,4.3
		c0,0.6,0,0.6,0,1.2c0,11.6,1.2,19,1.2,19l8.6,71c1.2,4.3,4.3,12.2,8.6,11.6c0,0,0,0,0.6,0c6.1-1.2,6.7-11,6.7-12.2l-8.6-70.4
		C362.3,415,362.3,406.4,362.3,400.3z M350.7,408.2c0-1.8,1.2-3.7,3.1-3.7s3.7,1.2,3.7,3.1c0,1.8-1.2,3.7-3.1,3.7
		C353.1,411.3,351.3,410.1,350.7,408.2z M353.1,433.3c0-1.8,1.2-3.7,3.1-3.7s3.7,1.2,3.7,3.1c0,1.8-1.2,3.7-3.1,3.7
		S353.1,435.2,353.1,433.3z M356.2,458.4c0-1.8,1.2-3.7,3.1-3.7s3.7,1.2,3.7,3.1s-1.2,3.7-3.1,3.7S356.2,460.3,356.2,458.4z
		 M366,482.9c0,1.8-1.2,3.7-3.1,3.7s-3.7-1.2-3.7-3.1s1.2-3.7,3.1-3.7C363.5,479.8,365.4,481.1,366,482.9z"/>
	<path d="M328.6,422.3l4.3,48.3c1.2,4.9,3.7,12.2,6.1,11.6l0,0c4.3-0.6,5.5-8.6,5.5-11.6l-4.3-47.7c-0.6-8.6-0.6-17.1-0.6-22.6
		c0-1.8,0-2.4-3.7-2.4c-1.8,0-3.7-0.6-4.9-0.6c-0.6,0-1.2,0-1.2,0c-0.6,0-0.6,0-1.2,0c-0.6,0-1.2,0-1.2,3.7c0,0.6,0,0.6,0,1.2
		C328,412.5,328.6,421.7,328.6,422.3z M340.9,457.8c0,1.8-1.2,3.7-2.4,3.7c-1.8,0-3.1-1.2-3.1-3.1c0-1.8,1.2-3.7,2.4-3.7
		S340.9,456,340.9,457.8z M338.4,431.5c0,1.8-1.2,3.7-2.4,3.7c-1.8,0-3.1-1.2-3.1-3.1s1.2-3.7,2.4-3.7
		C336.6,428.4,338.4,429.7,338.4,431.5z M333.5,403.3c1.8,0,3.1,1.2,3.1,3.1c0,1.8-1.2,3.7-2.4,3.7c-1.8,0-3.1-1.2-3.1-3.1
		C331.1,405.2,332.3,403.3,333.5,403.3z"/>
	<path d="M407.6,387.4c0.6,1.2,1.2,2.4,1.8,3.7c0.6,3.7,1.2,9.2,2.4,14.7c6.1-2.4,11.6-4.3,16.5-6.7c-0.6-4.9-1.2-11-1.8-12.9
		c-0.6-1.8-1.8-4.3-3.1-5.5C418,383.8,412.5,385.6,407.6,387.4z M419.8,397.2c-1.8,0.6-3.7-0.6-4.3-2.4c-0.6-1.8,0.6-3.7,2.4-4.3
		c1.8-0.6,3.7,0.6,4.3,2.4C422.9,394.8,421.7,396.6,419.8,397.2z"/>
	<path d="M372.7,390.5c8.6-0.6,17.7-3.1,27.5-6.1c0-5.5,1.2-19,2.4-21.4c0.6-1.2,1.2-6.1,2.4-12.2c-6.7,1.8-26.3,5.5-42.8-4.3
		l2.4,36.7c0,0-4.3-23.9-7.3-38.6c-4.3,1.8-19.6,6.7-27.5,5.5c2.4,5.5,3.7,9.2,3.7,9.2c3.7,23.3,8,29.4,9.8,31.2
		C353.1,390.5,364.1,391.1,372.7,390.5z"/>
	<path d="M441.3,277.9c-1.8,9.2-11.6,22.6-25.1,27.5c-15.3,6.1-46.5,3.7-58.1-6.7c-1.2-1.2-2.4-3.1-3.1-4.9
		c-3.1,3.1-10.4,10.4-17.7,12.2c-9.8,3.1-30,4.9-41-3.1l2.4,4.9c0,0,8,31.8,8,45.3c0,10.4,9.8,26.9,13.5,33
		c3.1,0.6,7.3,1.2,13.5,1.8c-6.1-11.6-6.7-37.3-9.8-42.2c-3.1-6.1-5.5-22-5.5-22c1.8,3.1,4.3,9.8,7.3,16.5c0,0,0,0,0,0.6l0,0
		c4.9,0.6,23.3,3.1,29.4-4.9c-3.1-12.2-2.4-28.2-2.4-28.2l1.8-8l4.9,8l2.4,30c4.3,1.8,16.5,6.7,27.5,6.7c9.2,0,14.1,0,15.9,0
		c1.2-9.2,2.4-18.4,2.4-18.4s3.7,20.2,0.6,33c-2.4,10.4-1.8,19-1.8,22c10.4-4.3,20.2-9.2,25.7-13.5c1.2-2.4,2.4-5.5,3.1-8.6
		l0.6-17.1c0.6-6.7,2.4-12.9,6.1-19s8-14.1,11.6-22C450.4,294.4,445.5,285.2,441.3,277.9z"/>
	<path d="M440.6,184.9c-16.5,1.8-30.6-4.9-30.6-4.9s-23.9,47.7-28.8,52.6c-2.4,2.4-11,7.3-21.4,10.4c-1.2,6.7-3.7,20.2-1.8,30.6
		c3.1,25.1,8.6,27.5,37.3,28.8c23.9,1.2,40.4-19.6,44.7-25.7c-4.9-8-8.6-14.1-8.6-14.1c9.8,4.9,15.9,13.5,15.9,13.5l12.9,17.7
		c9.8,11.6,20.8,23.3,20.8,23.3c9.8-6.7,23.9-3.7,23.9-3.7s-16.5,1.2-25.7,12.9c-9.2,11-6.1,47.7-1.2,47.1
		c4.9-0.6,16.5,5.5,16.5,5.5s-16.5-5.5-35.5,0s-10.4,15.9-6.7,18.4c3.7,1.8,4.9-6.1,8-6.1s8,5.5,9.8,11.6c1.8,6.1-18.4,14.1-10.4,19
		s19-13.5,19-8.6c0,4.9-12.9,15.3-8,16.5c4.3,1.2,19-12.2,19-12.2s0,4.3-3.1,8c-3.1,3.7-11,8-11,8l7.3,3.1
		c14.1,3.1,30-30.6,30.6-38.6c1.2-7.3,26.9-49.6,25.1-71c-1.8-21.4-19.6-49.6-24.5-55.1c-3.1-3.1-3.1-11.6-2.4-17.7
		c0.6-6.7-0.6-13.5-3.1-19.6c-6.1-15.3-17.1-28.2-17.1-28.2C479.8,195.3,459,183,440.6,184.9z"/>
	<path d="M238.1,325.6c2.4-3.7-3.7-11-3.7-11c0.6-3.7-4.9-12.2-4.9-12.2c0.6-4.9-7.3-13.5-7.3-13.5c0-7.3-9.2-9.2-9.2-9.2
		c-0.6,0-0.6,0-1.2,0c-6.7,0-19,10.4-25.7,15.3c-6.7,4.9-4.3,17.1-4.3,17.1c0,2.4,6.7,23.3,17.7,31.2c1.8,1.2,3.7,1.8,5.5,1.8
		C218.5,344.6,236.2,328.7,238.1,325.6z"/>
	<path d="M221.5,277.3c0,0,0-7.3-3.1-11.6s-8.6-7.3-14.1-2.4l5.5,11C209.9,274.2,217.9,273.6,221.5,277.3z"/>
	<path d="M445.5,378.9c0-0.6-0.6-1.2-1.2-2.4c-1.8-4.3-4.3-5.5-5.5-5.5c-4.9,3.1-9.2,6.1-14.1,8.6c1.2,1.2,3.1,3.7,3.7,6.1
		c0.6,2.4,1.8,7.3,3.1,11.6c4.9-3.1,8.6-4.9,10.4-6.7c-0.6-1.2-0.6-3.1-0.6-4.9C441.9,383.1,443.1,380.7,445.5,378.9z M438.2,386.2
		c-1.8,0.6-3.7-0.6-4.3-1.8c-0.6-1.8,0.6-3.7,1.8-4.3c1.8-0.6,3.7,0.6,4.3,1.8C441.3,383.8,440,385.6,438.2,386.2z"/>
	<path d="M228.3,286.5c2.4,3.1,6.7,8.6,7.3,14.1c2.4,3.7,4.9,8,4.9,11.6c2.4,3.7,6.7,11.6,2.4,17.1c0,0-0.6,0.6-0.6,1.2l1.8,3.1
		c0,0,12.2-1.8,18.4-28.8c0,0-9.2-12.9-22.6-17.7c0,0,4.9-3.7,26.9,10.4c0,0,13.5-24.5,19-36.7c0,0,1.8,17.7,4.9,30
		c4.3,3.7,11.6,9.2,19,11c12.9,3.1,26.3,0,31.8-6.7c3.1-4.3,7.3-8.6,10.4-10.4c-2.4-14.7-0.6-34.3,0-39.8
		c-7.3,1.2-14.7,0.6-20.8-1.8c-19.6-7.3-20.8-22-17.1-33.7c3.7-11,0-33.7,0-33.7s-8.6,9.2-22,11.6c-6.7,1.2-14.7,2.4-22.6,4.3
		c-23.3,5.5-34.9,49.6-37.3,60.6c-1.8,6.7-5.5,17.7-8.6,25.1C225.2,279.7,227.7,282.2,228.3,286.5z"/>
	<path d="M149.3,209.3l38.6,75.9c6.1-4.3,11.6-8.6,17.1-10.4l-37.9-74.7L149.3,209.3z"/>
	<path d="M236.2,336c-4.3,3.7-10.4,8-16.5,11l8,15.9l17.7-9.2L236.2,336z"/>
</g>
</svg>
